<svg xmlns="http://www.w3.org/2000/svg" width="18" height="20" viewBox="0 0 18 20" fill="none">
  <path fill-rule="evenodd" clip-rule="evenodd" d="M13.9303 5.00012C13.9621 4.92925 13.977 4.85201 13.9739 4.77445H14C13.8882 2.10603 11.6849 0.00012207 9.00494 0.00012207C6.325 0.00012207 4.12172 2.10603 4.00989 4.77445C3.9967 4.8491 3.9967 4.92547 4.00989 5.00012H3.93171C2.65022 5.00012 1.28034 5.84609 0.882639 8.1202L0.104905 14.3149C-0.531424 18.8631 1.81062 20.0001 4.86853 20.0001H13.1585C16.2075 20.0001 18.4789 18.3537 17.9133 14.3149L17.1444 8.1202C16.676 5.90976 15.3503 5.00012 14.0865 5.00012H13.9303ZM12.4932 5.00012C12.4654 4.92807 12.4506 4.85165 12.4497 4.77445C12.4497 2.85695 10.8899 1.30251 8.96575 1.30251C7.04164 1.30251 5.48184 2.85695 5.48184 4.77445C5.49502 4.8491 5.49502 4.92547 5.48184 5.00012H12.4932ZM6.097 10.1487C5.60889 10.1487 5.21321 9.74144 5.21321 9.23905C5.21321 8.73667 5.60889 8.32941 6.097 8.32941C6.5851 8.32941 6.98079 8.73667 6.98079 9.23905C6.98079 9.74144 6.5851 10.1487 6.097 10.1487ZM11.002 9.23905C11.002 9.74144 11.3977 10.1487 11.8858 10.1487C12.3739 10.1487 12.7696 9.74144 12.7696 9.23905C12.7696 8.73667 12.3739 8.32941 11.8858 8.32941C11.3977 8.32941 11.002 8.73667 11.002 9.23905Z" fill="black"/>
</svg>