<svg width="18" height="16" viewBox="0 0 18 16" fill="none" xmlns="http://www.w3.org/2000/svg">
<g id="Group 10">
<path id="Fill 1" fill-rule="evenodd" clip-rule="evenodd" d="M7.0801 13.5928H0.779099C0.365099 13.5928 0.0290985 13.2568 0.0290985 12.8428C0.0290985 12.4288 0.365099 12.0928 0.779099 12.0928H7.0801C7.4941 12.0928 7.8301 12.4288 7.8301 12.8428C7.8301 13.2568 7.4941 13.5928 7.0801 13.5928Z" fill="black"/>
<path id="Fill 3" fill-rule="evenodd" clip-rule="evenodd" d="M16.1909 3.90045H9.8909C9.4769 3.90045 9.1409 3.56445 9.1409 3.15045C9.1409 2.73645 9.4769 2.40045 9.8909 2.40045H16.1909C16.6049 2.40045 16.9409 2.73645 16.9409 3.15045C16.9409 3.56445 16.6049 3.90045 16.1909 3.90045Z" fill="black"/>
<g id="Group 7">
<mask id="mask0_418_760" style="mask-type:luminance" maskUnits="userSpaceOnUse" x="0" y="0" width="7" height="7">
<path id="Clip 6" fill-rule="evenodd" clip-rule="evenodd" d="M0 0.000427246H6.2258V6.19203H0V0.000427246Z" fill="white"/>
</mask>
<g mask="url(#mask0_418_760)">
<path id="Fill 5" fill-rule="evenodd" clip-rule="evenodd" d="M3.1128 1.5C2.2238 1.5 1.4998 2.216 1.4998 3.097C1.4998 3.977 2.2238 4.692 3.1128 4.692C4.0028 4.692 4.7258 3.977 4.7258 3.097C4.7258 2.216 4.0028 1.5 3.1128 1.5ZM3.1128 6.192C1.3968 6.192 -0.000198364 4.804 -0.000198364 3.097C-0.000198364 1.39 1.3968 0 3.1128 0C4.8298 0 6.2258 1.39 6.2258 3.097C6.2258 4.804 4.8298 6.192 3.1128 6.192Z" fill="black"/>
</g>
</g>
<path id="Fill 8" fill-rule="evenodd" clip-rule="evenodd" d="M14.3877 11.208C13.4977 11.208 12.7737 11.924 12.7737 12.804C12.7737 13.685 13.4977 14.4 14.3877 14.4C15.2767 14.4 15.9997 13.685 15.9997 12.804C15.9997 11.924 15.2767 11.208 14.3877 11.208ZM14.3877 15.9C12.6707 15.9 11.2737 14.511 11.2737 12.804C11.2737 11.097 12.6707 9.70801 14.3877 9.70801C16.1037 9.70801 17.4997 11.097 17.4997 12.804C17.4997 14.511 16.1037 15.9 14.3877 15.9Z" fill="black"/>
</g>
</svg>
