<svg xmlns="http://www.w3.org/2000/svg" width="20" height="20" viewBox="0 0 20 20" fill="none">
  <path fill-rule="evenodd" clip-rule="evenodd" d="M13.8498 0.500831C14.4808 0.500831 15.1108 0.589831 15.7098 0.790831C19.4008 1.99083 20.7308 6.04083 19.6198 9.58083C18.9898 11.3898 17.9598 13.0408 16.6108 14.3898C14.6798 16.2598 12.5608 17.9198 10.2798 19.3498L10.0298 19.5008L9.76977 19.3398C7.48077 17.9198 5.34977 16.2598 3.40077 14.3798C2.06077 13.0308 1.02977 11.3898 0.389772 9.58083C-0.740228 6.04083 0.589773 1.99083 4.32077 0.769831C4.61077 0.669831 4.90977 0.599831 5.20977 0.560831H5.32977C5.61077 0.519831 5.88977 0.500831 6.16977 0.500831H6.27977C6.90977 0.519831 7.51977 0.629831 8.11077 0.830831H8.16977C8.20977 0.849831 8.23977 0.870831 8.25977 0.889831C8.48077 0.960831 8.68977 1.04083 8.88977 1.15083L9.26977 1.32083C9.36159 1.3698 9.46466 1.44463 9.55373 1.5093C9.61017 1.55028 9.66099 1.58717 9.69977 1.61083C9.71609 1.62046 9.73268 1.63014 9.7494 1.6399C9.83514 1.68995 9.92446 1.74209 9.99977 1.79983C11.1108 0.950831 12.4598 0.490831 13.8498 0.500831ZM16.5098 7.70083C16.9198 7.68983 17.2698 7.36083 17.2998 6.93983V6.82083C17.3298 5.41983 16.4808 4.15083 15.1898 3.66083C14.7798 3.51983 14.3298 3.74083 14.1798 4.16083C14.0398 4.58083 14.2598 5.04083 14.6798 5.18983C15.3208 5.42983 15.7498 6.06083 15.7498 6.75983V6.79083C15.7308 7.01983 15.7998 7.24083 15.9398 7.41083C16.0798 7.58083 16.2898 7.67983 16.5098 7.70083Z" fill="black"/>
</svg>