<svg xmlns="http://www.w3.org/2000/svg" width="20" height="20" viewBox="0 0 20 20" fill="none">
  <path d="M7.13478 18.7735V15.7157C7.13478 14.9352 7.77217 14.3024 8.55844 14.3024H11.4326C11.8102 14.3024 12.1723 14.4513 12.4393 14.7164C12.7063 14.9814 12.8563 15.3409 12.8563 15.7157V18.7735C12.8539 19.098 12.9821 19.41 13.2124 19.6403C13.4427 19.8706 13.7561 20.0001 14.0829 20.0001H16.0438C16.9596 20.0025 17.8388 19.643 18.4872 19.0009C19.1356 18.3589 19.5 17.4871 19.5 16.5779V7.86698C19.5 7.13258 19.1721 6.43596 18.6046 5.96479L11.934 0.675991C10.7737 -0.251316 9.11111 -0.221376 7.98539 0.747101L1.46701 5.96479C0.872741 6.42207 0.517552 7.12076 0.5 7.86698V16.5691C0.5 18.464 2.04738 20.0001 3.95617 20.0001H5.87229C6.55123 20.0001 7.103 19.4563 7.10792 18.7824L7.13478 18.7735Z" fill="black"/>
</svg>