<svg xmlns="http://www.w3.org/2000/svg" width="18" height="20" viewBox="0 0 18 20" fill="none">
  <path fill-rule="evenodd" clip-rule="evenodd" d="M15.7071 6.79645C15.7071 8.05238 16.039 8.79265 16.7695 9.64571C17.3231 10.2742 17.5 11.0809 17.5 11.9561C17.5 12.8304 17.2128 13.6603 16.6373 14.3341C15.884 15.1418 14.8215 15.6575 13.7372 15.7471C12.1659 15.8811 10.5937 15.9939 9.0005 15.9939C7.40634 15.9939 5.83505 15.9264 4.26375 15.7471C3.17846 15.6575 2.11602 15.1418 1.36367 14.3341C0.78822 13.6603 0.5 12.8304 0.5 11.9561C0.5 11.0809 0.677901 10.2742 1.23049 9.64571C1.98384 8.79265 2.29392 8.05238 2.29392 6.79645V6.37042C2.29392 4.68846 2.71333 3.58864 3.577 2.51198C4.86106 0.941819 6.91935 0.00012207 8.95577 0.00012207H9.04522C11.1254 0.00012207 13.2502 0.987141 14.5125 2.62479C15.3314 3.67929 15.7071 4.73278 15.7071 6.37042V6.79645ZM6.07367 18.061C6.07367 17.5574 6.53582 17.3267 6.96318 17.228C7.46309 17.1223 10.5093 17.1223 11.0092 17.228C11.4366 17.3267 11.8987 17.5574 11.8987 18.061C11.8738 18.5404 11.5926 18.9654 11.204 19.2353C10.7001 19.6281 10.1088 19.8769 9.49057 19.9665C9.14868 20.0108 8.81276 20.0118 8.48279 19.9665C7.86362 19.8769 7.27227 19.6281 6.76938 19.2343C6.37978 18.9654 6.09852 18.5404 6.07367 18.061Z" fill="black"/>
</svg>